<svg width="20" height="20" viewBox="0 0 20 20" fill="none" xmlns="http://www.w3.org/2000/svg">
<path d="M10.25 0.25C8.32164 0.25 6.43657 0.821828 4.83319 1.89317C3.22982 2.96451 1.98013 4.48726 1.24218 6.26884C0.504225 8.05042 0.311142 10.0108 0.687348 11.9021C1.06355 13.7934 1.99215 15.5307 3.35571 16.8943C4.71928 18.2579 6.45656 19.1865 8.34787 19.5627C10.2392 19.9389 12.1996 19.7458 13.9812 19.0078C15.7627 18.2699 17.2855 17.0202 18.3568 15.4168C19.4282 13.8134 20 11.9284 20 10C19.9973 7.41498 18.9692 4.93661 17.1413 3.10872C15.3134 1.28084 12.835 0.25273 10.25 0.25ZM11 18.2153V12.25H13.25C13.4489 12.25 13.6397 12.171 13.7803 12.0303C13.921 11.8897 14 11.6989 14 11.5C14 11.3011 13.921 11.1103 13.7803 10.9697C13.6397 10.829 13.4489 10.75 13.25 10.75H11V8.5C11 8.10218 11.158 7.72064 11.4393 7.43934C11.7206 7.15804 12.1022 7 12.5 7H14C14.1989 7 14.3897 6.92098 14.5303 6.78033C14.671 6.63968 14.75 6.44891 14.75 6.25C14.75 6.05109 14.671 5.86032 14.5303 5.71967C14.3897 5.57902 14.1989 5.5 14 5.5H12.5C11.7044 5.5 10.9413 5.81607 10.3787 6.37868C9.81608 6.94129 9.5 7.70435 9.5 8.5V10.75H7.25C7.05109 10.75 6.86033 10.829 6.71967 10.9697C6.57902 11.1103 6.5 11.3011 6.5 11.5C6.5 11.6989 6.57902 11.8897 6.71967 12.0303C6.86033 12.171 7.05109 12.25 7.25 12.25H9.5V18.2153C7.38575 18.0223 5.42728 17.0217 4.03198 15.4215C2.63667 13.8214 1.91195 11.7449 2.00855 9.62409C2.10515 7.50324 3.01564 5.50127 4.55064 4.0346C6.08563 2.56793 8.12696 1.74947 10.25 1.74947C12.3731 1.74947 14.4144 2.56793 15.9494 4.0346C17.4844 5.50127 18.3949 7.50324 18.4915 9.62409C18.5881 11.7449 17.8633 13.8214 16.468 15.4215C15.0727 17.0217 13.1143 18.0223 11 18.2153Z" fill="#CD3C32"/>
</svg>
