<svg width="18" height="18" viewBox="0 0 18 18" fill="none" xmlns="http://www.w3.org/2000/svg">
<path d="M18 8.99955C18.0001 11.1187 17.2524 13.1699 15.8887 14.7919C14.5249 16.414 12.6325 17.5027 10.5448 17.8665C8.45708 18.2302 6.30798 17.8456 4.47601 16.7803C2.64404 15.7151 1.24671 14.0376 0.530141 12.0433C-0.186432 10.049 -0.176286 7.86574 0.558791 5.87816C1.29387 3.89058 2.70672 2.22613 4.54851 1.17798C6.3903 0.129826 8.54288 -0.2348 10.6271 0.148323C12.7114 0.531447 14.5935 1.63774 15.9422 3.27236C16.0091 3.3477 16.0602 3.43576 16.0924 3.53127C16.1245 3.62679 16.1371 3.72782 16.1294 3.8283C16.1216 3.92879 16.0937 4.02669 16.0472 4.11614C16.0008 4.20559 15.9368 4.28477 15.8591 4.34894C15.7814 4.41311 15.6915 4.46095 15.5949 4.48962C15.4983 4.51828 15.3968 4.52717 15.2967 4.51577C15.1966 4.50436 15.0998 4.47289 15.012 4.42323C14.9243 4.37357 14.8475 4.30674 14.7863 4.22674C13.6832 2.88922 12.1508 1.97518 10.4497 1.64009C8.74873 1.30501 6.98416 1.56959 5.45621 2.38881C3.92827 3.20804 2.73133 4.53132 2.06902 6.13353C1.40671 7.73575 1.31994 9.51793 1.82346 11.1769C2.32699 12.8359 3.3897 14.2692 4.83083 15.233C6.27196 16.1968 8.00248 16.6315 9.72801 16.4633C11.4535 16.295 13.0675 15.5342 14.2953 14.3102C15.5231 13.0861 16.2889 11.4745 16.4625 9.74955H9C8.80109 9.74955 8.61032 9.67053 8.46967 9.52988C8.32902 9.38923 8.25 9.19846 8.25 8.99955C8.25 8.80064 8.32902 8.60987 8.46967 8.46922C8.61032 8.32857 8.80109 8.24955 9 8.24955H17.25C17.4489 8.24955 17.6397 8.32857 17.7803 8.46922C17.921 8.60987 18 8.80064 18 8.99955Z" fill="#CD3C32"/>
</svg>
