<svg width="21" height="20" viewBox="0 0 21 20" fill="none" xmlns="http://www.w3.org/2000/svg">
<path d="M10.5 5.5C9.60998 5.5 8.73995 5.76392 7.99993 6.25839C7.25991 6.75285 6.68314 7.45566 6.34254 8.27792C6.00195 9.10019 5.91283 10.005 6.08647 10.8779C6.2601 11.7508 6.68868 12.5526 7.31802 13.182C7.94736 13.8113 8.74918 14.2399 9.62209 14.4135C10.495 14.5872 11.3998 14.4981 12.2221 14.1575C13.0443 13.8169 13.7471 13.2401 14.2416 12.5001C14.7361 11.76 15 10.89 15 10C14.9988 8.80691 14.5243 7.66303 13.6806 6.81939C12.837 5.97575 11.6931 5.50124 10.5 5.5ZM10.5 13C9.90666 13 9.32664 12.8241 8.83329 12.4944C8.33994 12.1648 7.95542 11.6962 7.72836 11.1481C7.5013 10.5999 7.44189 9.99667 7.55764 9.41473C7.6734 8.83279 7.95912 8.29824 8.37868 7.87868C8.79824 7.45912 9.33279 7.1734 9.91473 7.05764C10.4967 6.94189 11.0999 7.0013 11.6481 7.22836C12.1962 7.45542 12.6648 7.83994 12.9944 8.33329C13.3241 8.82664 13.5 9.40666 13.5 10C13.5 10.7956 13.1839 11.5587 12.6213 12.1213C12.0587 12.6839 11.2956 13 10.5 13ZM15 0.25H6C4.60807 0.251489 3.27358 0.805091 2.28933 1.78933C1.30509 2.77358 0.751489 4.10807 0.75 5.5V14.5C0.751489 15.8919 1.30509 17.2264 2.28933 18.2107C3.27358 19.1949 4.60807 19.7485 6 19.75H15C16.3919 19.7485 17.7264 19.1949 18.7107 18.2107C19.6949 17.2264 20.2485 15.8919 20.25 14.5V5.5C20.2485 4.10807 19.6949 2.77358 18.7107 1.78933C17.7264 0.805091 16.3919 0.251489 15 0.25ZM18.75 14.5C18.75 15.4946 18.3549 16.4484 17.6516 17.1516C16.9484 17.8549 15.9946 18.25 15 18.25H6C5.00544 18.25 4.05161 17.8549 3.34835 17.1516C2.64509 16.4484 2.25 15.4946 2.25 14.5V5.5C2.25 4.50544 2.64509 3.55161 3.34835 2.84835C4.05161 2.14509 5.00544 1.75 6 1.75H15C15.9946 1.75 16.9484 2.14509 17.6516 2.84835C18.3549 3.55161 18.75 4.50544 18.75 5.5V14.5ZM16.5 5.125C16.5 5.3475 16.434 5.56501 16.3104 5.75002C16.1868 5.93502 16.0111 6.07922 15.8055 6.16436C15.6 6.24951 15.3738 6.27179 15.1555 6.22838C14.9373 6.18498 14.7368 6.07783 14.5795 5.9205C14.4222 5.76316 14.315 5.56271 14.2716 5.34448C14.2282 5.12625 14.2505 4.90005 14.3356 4.69448C14.4208 4.48891 14.565 4.31321 14.75 4.1896C14.935 4.06598 15.1525 4 15.375 4C15.6734 4 15.9595 4.11853 16.1705 4.3295C16.3815 4.54048 16.5 4.82663 16.5 5.125Z" fill="#CD3C32"/>
</svg>
