<svg width="36" height="38" viewBox="0 0 36 38" fill="none" xmlns="http://www.w3.org/2000/svg">
<g clip-path="url(#clip0_257347_1071)">
<path d="M13.3742 7.51019C13.2046 9.33582 20.0248 9.94817 23.0981 10.2246C26.1714 10.5011 32.8522 11.102 33.0218 9.27641C33.1914 7.45078 30.3388 3.87265 25.5837 1.99218C15.0305 -2.18231 6.41696 2.34406 4.43547 3.02724C3.65961 3.29685 13.4323 6.90013 13.3742 7.51019Z" fill="#CD3C32"/>
<path d="M0.511613 2.49967C0.372235 4.00998 1.50352 5.34893 3.04131 5.48602C4.57911 5.62311 5.93804 4.51037 6.07742 3.00006C6.2168 1.48746 5.08552 0.150801 3.55004 0.0114225C2.01224 -0.125671 0.653313 0.98707 0.511613 2.49967Z" fill="white"/>
<path d="M10.3747 17.9707C9.91241 27.2771 15.9103 28.7371 22.7398 28.7371C29.5693 28.7371 35.1049 25.2252 35.1049 17.9707C35.1049 10.7162 29.5553 7.8418 22.7282 7.8418C15.8964 7.8418 10.823 8.96139 10.3747 17.9707Z" fill="white"/>
<path d="M11.7992 19.1406C11.3973 28.4469 16.5961 29.907 22.5104 29.907C28.4269 29.907 33.2215 26.3951 33.2215 19.1406C33.2215 11.8883 28.4269 8.37646 22.5104 8.37646C16.5938 8.37646 12.1871 10.1313 11.7992 19.1406Z" fill="#F8C1A5"/>
<path d="M14.6445 21.2151C14.6445 21.9188 15.5946 22.4878 16.7654 22.4878C17.9362 22.4878 18.8863 21.9188 18.8863 21.2151C18.8863 20.5113 17.9362 19.9424 16.7654 19.9424C15.5946 19.9424 14.6445 20.5113 14.6445 21.2151Z" fill="#FBE1DB"/>
<path d="M25.5059 21.2151C25.5059 21.9188 26.4559 22.4878 27.6267 22.4878C28.7975 22.4878 29.7476 21.9188 29.7476 21.2151C29.7476 20.5113 28.7975 19.9424 27.6267 19.9424C26.4559 19.9424 25.5059 20.5113 25.5059 21.2151Z" fill="#FBE1DB"/>
<path d="M9.52051 19.6752C9.52051 21.6562 10.5403 21.9669 11.7993 21.9669C13.0584 21.9669 14.0782 21.2198 14.0782 19.6752C14.0782 18.1329 13.0584 17.3857 11.7993 17.3857C10.5403 17.3857 9.52051 17.6942 9.52051 19.6752Z" fill="#F8C1A5"/>
<path d="M30.9425 19.6752C30.9425 21.6562 31.9623 21.9669 33.2213 21.9669C34.4804 21.9669 35.5002 21.2198 35.5002 19.6752C35.5002 18.1329 34.4804 17.3857 33.2213 17.3857C31.9623 17.3857 30.9425 17.6942 30.9425 19.6752Z" fill="#F8C1A5"/>
<path d="M16.4489 21.7314C17.9681 21.3018 20.0355 21.2356 22.1146 21.2173V24.8982C21.636 24.8366 21.2922 24.7977 20.9066 24.9165C18.1586 25.7665 17.2782 24.8525 15.7868 24.752C15.0899 24.704 13.7705 24.9279 13.7705 24.9279C13.7705 24.9279 14.0771 22.4031 16.4489 21.7314Z" fill="#F0F8FD"/>
<path d="M28.7301 21.7319C27.2109 21.3023 25.1435 21.2361 23.0645 21.2178V24.8987C23.543 24.837 23.8868 24.7982 24.2724 24.917C27.0204 25.767 27.9008 24.853 29.3922 24.7525C30.0891 24.7045 31.4085 24.9284 31.4085 24.9284C31.4085 24.9284 31.0996 22.4036 28.7301 21.7319Z" fill="#F0F8FD"/>
<path d="M22.51 12.88C17.1672 12.88 12.7512 13.4124 13.2344 19.1406H11.7988C12.1868 9.68342 16.5957 7.8418 22.51 7.8418C28.4266 7.8418 33.2211 11.5273 33.2211 19.1406H31.9784C32.3454 13.9859 26.8469 12.88 22.51 12.88Z" fill="white"/>
<path d="M33.2206 19.1406C32.986 23.13 35.079 25.9679 35.1022 29.2947C35.1324 33.6702 32.2542 37.9978 22.5094 37.9978C12.2327 37.9978 9.31735 33.4829 9.51945 28.7349C9.65418 25.5566 11.789 22.8741 11.7983 19.1406C11.7983 19.1406 13.12 17.3081 13.2339 19.1406C13.4917 23.2945 17.8263 21.2153 22.4119 21.2153C27.3319 21.2153 31.3181 22.488 31.9778 19.1406C32.1822 18.1078 33.2206 19.1406 33.2206 19.1406Z" fill="white"/>
<path d="M20.4453 24.1627C20.4453 25.0012 21.3257 25.6798 22.4129 25.6798C23.5 25.6798 24.3804 25.0012 24.3804 24.1627C24.3804 23.3241 23.5 22.6455 22.4129 22.6455C21.3257 22.6455 20.4453 23.3264 20.4453 24.1627Z" fill="#CD3C32"/>
<path d="M14.1289 24.3842C14.1289 24.3842 15.1766 23.9249 16.6121 24.3088C17.8665 24.6424 19.4067 25.353 20.8028 24.9508C22.8981 24.3476 22.5868 22.3621 22.5868 22.3621C22.5868 22.3621 21.2674 20.9043 19.0164 20.9112C15.2462 20.9203 14.1289 24.3842 14.1289 24.3842Z" fill="white"/>
<path d="M30.8883 24.3842C30.8883 24.3842 29.8407 23.9249 28.4051 24.3088C27.1507 24.6424 25.6106 25.353 24.2145 24.9508C22.1192 24.3476 22.4281 22.3621 22.4281 22.3621C22.4281 22.3621 23.7476 20.9043 25.9985 20.9112C29.7733 20.9203 30.8883 24.3842 30.8883 24.3842Z" fill="white"/>
<path d="M19.7598 20.7947C19.7598 21.7932 20.9468 22.602 22.4126 22.602C23.8784 22.602 25.0654 21.7932 25.0654 20.7947C25.0654 19.7962 23.8784 18.9873 22.4126 18.9873C20.9468 18.9873 19.7598 19.7984 19.7598 20.7947Z" fill="#F2937B"/>
<path d="M10.7332 15.2355C11.0352 15.7702 17.0237 13.9263 22.5106 13.8257C28.3319 13.7184 34.1834 15.8182 34.7851 15.1373C35.9535 13.812 34.3925 9.6741 33.2217 8.77842C30.5062 6.69917 14.645 7.20642 12.7286 8.37856C11.5625 9.08916 9.93641 13.8257 10.7332 15.2355Z" fill="white"/>
<path d="M10.9394 14.8929C12.0661 14.4542 13.1532 13.8784 14.3054 13.506C15.7851 13.0261 17.3113 12.8022 18.8631 12.6994C22.1872 12.4801 25.5671 12.6149 28.8657 13.0764C30.4105 13.2935 31.932 13.6111 33.4675 13.8715C34.0366 13.9675 34.6499 13.9195 35.1958 13.7253C35.1934 14.3057 35.0726 14.8084 34.7823 15.1351C34.1806 15.8183 28.3291 13.7162 22.5078 13.8236C17.0209 13.9264 11.0324 15.768 10.7304 15.2333C10.6932 15.1648 10.6607 15.0871 10.6328 15.0049C10.7373 14.9706 10.8396 14.934 10.9394 14.8929Z" fill="#F0F8FD"/>
<path opacity="0.3" d="M20.7949 19.8352C20.7949 20.2191 21.5197 20.5276 22.4117 20.5276C23.3037 20.5276 24.0285 20.2168 24.0285 19.8352C24.0285 19.4514 23.306 19.1406 22.4117 19.1406C21.5197 19.1406 20.7949 19.4514 20.7949 19.8352Z" fill="white"/>
<path d="M17.4258 17.8657C17.4258 18.4232 17.8857 18.8779 18.4549 18.8779C19.0217 18.8779 19.4839 18.4255 19.4839 17.8657C19.4839 17.3082 19.024 16.8535 18.4549 16.8535C17.8881 16.8535 17.4258 17.3059 17.4258 17.8657Z" fill="#2F120C"/>
<path d="M26.4034 17.8657C26.4034 18.4232 26.8634 18.8779 27.4325 18.8779C28.0016 18.8779 28.4616 18.4255 28.4616 17.8657C28.4616 17.3082 28.0016 16.8535 27.4325 16.8535C26.8657 16.8535 26.4034 17.3059 26.4034 17.8657Z" fill="#2F120C"/>
<path d="M15.2245 16.3189C15.7681 16.6251 17.573 15.5169 19.5382 15.7842C20.486 15.9122 20.0888 14.1642 19.5382 13.9906C17.8634 13.4559 16.0794 13.8329 15.2083 14.9525C14.4905 15.8733 14.6809 16.0127 15.2245 16.3189Z" fill="white"/>
<path d="M29.6344 16.0606C29.0908 16.3668 27.2859 15.2586 25.3207 15.5259C24.3729 15.6539 24.7724 13.9059 25.3207 13.7323C26.9955 13.1976 28.7796 13.5746 29.6507 14.6942C30.3708 15.615 30.178 15.7544 29.6344 16.0606Z" fill="white"/>
</g>
<defs>
<clipPath id="clip0_257347_1071">
<rect width="35" height="38" fill="white" transform="translate(0.5)"/>
</clipPath>
</defs>
</svg>
