<svg width="22" height="18" viewBox="0 0 22 18" fill="none" xmlns="http://www.w3.org/2000/svg">
<path d="M21.0674 2.71326C21.0107 2.5762 20.9146 2.45905 20.7913 2.37662C20.668 2.29418 20.523 2.25016 20.3746 2.25013H17.5218C17.123 1.57155 16.5553 1.00772 15.874 0.613451C15.1928 0.219184 14.4211 0.00789751 13.634 0.00013415C13.0476 -0.0075573 12.4656 0.10211 11.9222 0.322682C11.3788 0.543254 10.8851 0.870277 10.4699 1.28451C10.0427 1.70378 9.70359 2.20424 9.47256 2.75647C9.24153 3.30869 9.12323 3.90153 9.12463 4.50013V5.07107C5.35026 4.07545 2.26307 1.00513 2.23026 0.972322C2.12964 0.87081 2.00211 0.800164 1.86268 0.768703C1.72326 0.737242 1.57774 0.746276 1.44328 0.794742C1.30882 0.843208 1.191 0.929087 1.10371 1.04226C1.01642 1.15544 0.963289 1.29121 0.950571 1.43357C0.546508 5.91388 1.84776 8.91201 3.01307 10.6379C3.58127 11.4912 4.27249 12.2557 5.06432 12.9067C3.63651 14.5501 1.38838 15.4136 1.36401 15.4229C1.25818 15.4626 1.16267 15.5256 1.08463 15.6074C1.00659 15.6891 0.948023 15.7874 0.913315 15.895C0.878608 16.0025 0.868653 16.1165 0.884195 16.2284C0.899738 16.3404 0.940375 16.4474 1.00307 16.5414C1.07338 16.6464 1.35463 17.0148 2.04182 17.3589C2.8912 17.7845 4.01338 18.0001 5.37463 18.0001C11.9999 18.0001 17.5359 12.8983 18.1012 6.33388L20.9053 3.53076C21.0101 3.42581 21.0815 3.29213 21.1104 3.14661C21.1392 3.0011 21.1243 2.85029 21.0674 2.71326ZM16.8487 5.47045C16.7201 5.59935 16.6428 5.77062 16.6312 5.95232C16.2496 11.867 11.3071 16.5001 5.37463 16.5001C4.38463 16.5001 3.68713 16.3689 3.19776 16.2114C4.27682 15.6254 5.78151 14.6176 6.74901 13.1664C6.80579 13.081 6.84448 12.985 6.86269 12.8841C6.8809 12.7832 6.87823 12.6797 6.85486 12.5799C6.83149 12.4801 6.78792 12.3861 6.72682 12.3038C6.66572 12.2215 6.5884 12.1526 6.49963 12.1014C6.45557 12.0761 2.38307 9.63201 2.37463 3.10138C3.87463 4.32013 6.61682 6.21107 9.74995 6.73795C9.85733 6.75605 9.96736 6.75055 10.0724 6.72184C10.1774 6.69313 10.275 6.64188 10.3582 6.57167C10.4414 6.50146 10.5084 6.41396 10.5544 6.31526C10.6004 6.21656 10.6244 6.10903 10.6246 6.00013V4.50013C10.6238 4.10006 10.703 3.70385 10.8575 3.33483C11.0121 2.96581 11.2389 2.63144 11.5246 2.35138C11.7985 2.07698 12.1247 1.86026 12.4837 1.71405C12.8428 1.56784 13.2276 1.4951 13.6153 1.50013C14.8021 1.51513 15.9112 2.23888 16.3753 3.30107C16.4338 3.43461 16.5299 3.54821 16.652 3.62797C16.774 3.70772 16.9167 3.75018 17.0624 3.75013H18.5624L16.8487 5.47045Z" fill="#CD3C32"/>
</svg>
