<svg width="20" height="20" viewBox="0 0 20 20" fill="none" xmlns="http://www.w3.org/2000/svg">
<path d="M15.3387 11.5787L12.3387 10.0787C12.2206 10.0199 12.0891 9.99325 11.9574 10.0015C11.8258 10.0097 11.6986 10.0525 11.5887 10.1256L10.2115 11.0444C9.57934 10.6968 9.05908 10.1766 8.71154 9.54437L9.63029 8.16719C9.70338 8.05734 9.74621 7.93016 9.75444 7.79848C9.76267 7.6668 9.73601 7.53528 9.67717 7.41719L8.17717 4.41719C8.11499 4.29163 8.01889 4.186 7.89976 4.11226C7.78062 4.03853 7.64321 3.99964 7.5031 4C6.50854 4 5.55472 4.39509 4.85145 5.09835C4.14819 5.80161 3.7531 6.75544 3.7531 7.75C3.75559 9.93727 4.62558 12.0343 6.17221 13.5809C7.71885 15.1275 9.81583 15.9975 12.0031 16C12.4956 16 12.9832 15.903 13.4382 15.7145C13.8931 15.5261 14.3065 15.2499 14.6548 14.9017C15.003 14.5534 15.2792 14.14 15.4677 13.6851C15.6561 13.2301 15.7531 12.7425 15.7531 12.25C15.7532 12.1107 15.7145 11.9741 15.6413 11.8555C15.5681 11.7369 15.4633 11.6411 15.3387 11.5787ZM12.0031 14.5C10.2135 14.498 8.49777 13.7862 7.23233 12.5208C5.96689 11.2553 5.25509 9.5396 5.2531 7.75C5.25296 7.2298 5.43307 6.72562 5.76279 6.32326C6.09251 5.9209 6.55146 5.64521 7.06154 5.54313L8.13779 7.69938L7.22185 9.0625C7.15341 9.16517 7.11135 9.28314 7.09942 9.40596C7.08748 9.52877 7.10603 9.65263 7.15342 9.76656C7.69003 11.0419 8.70462 12.0565 9.97998 12.5931C10.0943 12.6426 10.2191 12.6629 10.3431 12.6521C10.4672 12.6413 10.5866 12.5998 10.6906 12.5312L12.0603 11.6181L14.2165 12.6944C14.1137 13.205 13.8368 13.6642 13.4331 13.9935C13.0294 14.3228 12.524 14.5018 12.0031 14.5ZM9.7531 0.25C8.06979 0.249633 6.41506 0.685083 4.94997 1.51396C3.48487 2.34285 2.25934 3.53692 1.39264 4.97997C0.525945 6.42301 0.0476187 8.06587 0.00421839 9.74862C-0.0391819 11.4314 0.353823 13.0967 1.14498 14.5825L0.0809172 17.7747C-0.00722218 18.039 -0.0200133 18.3226 0.0439777 18.5938C0.107969 18.8649 0.246213 19.1129 0.443215 19.3099C0.640218 19.5069 0.888194 19.6451 1.15935 19.7091C1.4305 19.7731 1.71412 19.7603 1.97842 19.6722L5.17061 18.6081C6.4782 19.3036 7.92705 19.6921 9.40719 19.744C10.8873 19.7959 12.3599 19.51 13.713 18.9079C15.0661 18.3057 16.2643 17.4033 17.2165 16.269C18.1688 15.1346 18.8502 13.7983 19.2088 12.3613C19.5675 10.9244 19.5941 9.42456 19.2867 7.97578C18.9792 6.52701 18.3457 5.16732 17.4343 3.99992C16.5228 2.83253 15.3574 1.88811 14.0265 1.23836C12.6956 0.588614 11.2342 0.250608 9.7531 0.25ZM9.7531 18.25C8.30277 18.251 6.87788 17.8691 5.62248 17.1428C5.53056 17.0895 5.42837 17.0563 5.32267 17.0455C5.21697 17.0347 5.11017 17.0464 5.00936 17.08L1.5031 18.25L2.67217 14.7438C2.70587 14.643 2.71778 14.5362 2.70711 14.4305C2.69644 14.3248 2.66344 14.2226 2.61029 14.1306C1.70089 12.5584 1.33577 10.7299 1.57157 8.92896C1.80737 7.12801 2.63091 5.4552 3.91444 4.17006C5.19796 2.88491 6.86972 2.05925 8.67038 1.82118C10.471 1.5831 12.2999 1.94591 13.8734 2.85333C15.4468 3.76074 16.6768 5.16204 17.3725 6.83983C18.0682 8.51762 18.1909 10.3781 17.7213 12.1327C17.2518 13.8873 16.2163 15.4379 14.7756 16.5439C13.3349 17.65 11.5694 18.2497 9.7531 18.25Z" fill="#CD3C32"/>
</svg>
